<svg width="279" height="272" viewBox="0 0 279 272" fill="none" xmlns="http://www.w3.org/2000/svg">
<path d="M119.457 158.706L90.2715 141.855L90.2715 108.155L90.3125 108.131L119.457 124.958V158.706Z" fill="url(#paint0_linear_231_412)"/>
<path d="M119.457 158.693V124.745L148.643 108.134V141.856L119.457 158.693Z" fill="url(#paint1_linear_231_412)"/>
<path d="M148.632 108.148L119.458 124.992L90.2837 108.148L119.457 91.3044L148.632 108.148Z" fill="url(#paint2_linear_231_412)"/>
<path d="M161.443 62.9024L143.932 52.8178V32.6486L143.957 32.6344L161.443 42.7049V62.9024Z" fill="url(#paint3_linear_231_412)"/>
<path d="M161.443 62.8952V42.5777L178.955 32.6362V52.8184L161.443 62.8952Z" fill="url(#paint4_linear_231_412)"/>
<path d="M178.948 32.6448L161.444 42.7252L143.939 32.6443L161.443 22.5639L178.948 32.6448Z" fill="url(#paint5_linear_231_412)"/>
<path d="M213.191 13.3185L161.443 42.6625V101.79" stroke="url(#paint6_linear_231_412)" stroke-width="1.35747"/>
<path d="M162.217 224.441L144.706 214.356V194.187L144.731 194.173L162.217 204.243V224.441Z" fill="url(#paint7_linear_231_412)"/>
<path d="M162.217 224.434V204.116L179.729 194.175V214.357L162.217 224.434Z" fill="url(#paint8_linear_231_412)"/>
<path d="M179.722 194.183L162.218 204.264L144.713 194.183L162.217 184.102L179.722 194.183Z" fill="url(#paint9_linear_231_412)"/>
<path d="M196.154 134.22L172.806 120.753L172.806 93.8179L172.838 93.799L196.154 107.247V134.22Z" fill="url(#paint10_linear_231_412)"/>
<path d="M196.154 134.211V107.078L219.503 93.8014V120.754L196.154 134.211Z" fill="url(#paint11_linear_231_412)"/>
<path d="M219.494 93.8128L196.155 107.275L172.815 93.8121L196.154 80.3504L219.494 93.8128Z" fill="url(#paint12_linear_231_412)"/>
<path d="M52.9412 190.239L29.5928 176.771L29.5928 149.836L29.6256 149.818L52.9412 163.266V190.239Z" fill="url(#paint13_linear_231_412)"/>
<path d="M52.9412 190.229V163.096L76.2896 149.82V176.772L52.9412 190.229Z" fill="url(#paint14_linear_231_412)"/>
<path d="M76.2811 149.831L52.9425 163.293L29.6028 149.831L52.9413 136.369L76.2811 149.831Z" fill="url(#paint15_linear_231_412)"/>
<path d="M102.79 51.8263L196.154 107.733L254.57 73.3098" stroke="#FFB452" stroke-width="1.35747" stroke-dasharray="1.36 2.04"/>
<path d="M119.173 125.425L52.9412 163.526V224.84L178.403 153.246L214.512 175.245L162.275 204.258L136.373 189.71" stroke="#FFB452" stroke-width="1.35747" stroke-dasharray="1.36 2.04"/>
<path d="M14.2759 65.4566L119.457 125.566L161.478 100.925" stroke="url(#paint16_linear_231_412)" stroke-width="1.35747"/>
<path d="M196.154 107.191V146.931L266.394 186.871" stroke="url(#paint17_linear_231_412)" stroke-width="1.35747"/>
<path d="M119.457 124.887V253.546" stroke="url(#paint18_linear_231_412)" stroke-width="1.35747"/>
<path fill-rule="evenodd" clip-rule="evenodd" d="M119.457 77.1249L77.4604 101.372V149.865L119.457 174.112L161.454 149.865V101.372L119.457 77.1249Z" stroke="url(#paint19_linear_231_412)" stroke-width="1.35747"/>
<path fill-rule="evenodd" clip-rule="evenodd" d="M161.443 13.9814L136.161 28.5416V57.659L161.443 72.2191L186.726 57.659V28.5416L161.443 13.9814Z" stroke="url(#paint20_linear_231_412)" stroke-width="1.35747"/>
<path fill-rule="evenodd" clip-rule="evenodd" d="M162.217 175.52L136.935 190.08V219.198L162.217 233.758L187.5 219.198V190.08L162.217 175.52Z" stroke="url(#paint21_linear_231_412)" stroke-width="1.35747"/>
<path opacity="0.302734" d="M13.5747 78.733C21.0717 78.733 27.1493 72.6554 27.1493 65.1584C27.1493 57.6613 21.0717 51.5837 13.5747 51.5837C6.07758 51.5837 0 57.6613 0 65.1584C0 72.6554 6.07758 78.733 13.5747 78.733Z" fill="url(#paint22_linear_231_412)"/>
<path d="M13.5746 70.5882C16.5735 70.5882 19.0045 68.1572 19.0045 65.1584C19.0045 62.1595 16.5735 59.7285 13.5746 59.7285C10.5758 59.7285 8.14478 62.1595 8.14478 65.1584C8.14478 68.1572 10.5758 70.5882 13.5746 70.5882Z" fill="#FB940D"/>
<path opacity="0.302734" d="M119.457 271.493C126.954 271.493 133.032 265.416 133.032 257.919C133.032 250.421 126.954 244.344 119.457 244.344C111.96 244.344 105.882 250.421 105.882 257.919C105.882 265.416 111.96 271.493 119.457 271.493Z" fill="url(#paint23_linear_231_412)"/>
<path d="M119.457 263.348C122.456 263.348 124.887 260.917 124.887 257.919C124.887 254.92 122.456 252.489 119.457 252.489C116.458 252.489 114.027 254.92 114.027 257.919C114.027 260.917 116.458 263.348 119.457 263.348Z" fill="#FFB452"/>
<path opacity="0.302734" d="M254.525 86.8778C262.022 86.8778 268.1 80.8002 268.1 73.3032C268.1 65.8061 262.022 59.7285 254.525 59.7285C247.028 59.7285 240.95 65.8061 240.95 73.3032C240.95 80.8002 247.028 86.8778 254.525 86.8778Z" fill="url(#paint24_linear_231_412)"/>
<path d="M254.525 78.733C257.524 78.733 259.955 76.302 259.955 73.3032C259.955 70.3043 257.524 67.8733 254.525 67.8733C251.526 67.8733 249.095 70.3043 249.095 73.3032C249.095 76.302 251.526 78.733 254.525 78.733Z" fill="#FFB452"/>
<path opacity="0.302734" d="M213.122 27.1493C220.619 27.1493 226.697 21.0717 226.697 13.5747C226.697 6.07758 220.619 0 213.122 0C205.625 0 199.547 6.07758 199.547 13.5747C199.547 21.0717 205.625 27.1493 213.122 27.1493Z" fill="url(#paint25_linear_231_412)"/>
<path d="M213.122 19.0045C216.121 19.0045 218.552 16.5735 218.552 13.5747C218.552 10.5758 216.121 8.14481 213.122 8.14481C210.123 8.14481 207.692 10.5758 207.692 13.5747C207.692 16.5735 210.123 19.0045 213.122 19.0045Z" fill="#FB940D"/>
<path d="M119.457 137.104C126.579 137.104 132.353 131.33 132.353 124.208C132.353 117.086 126.579 111.312 119.457 111.312C112.335 111.312 106.561 117.086 106.561 124.208C106.561 131.33 112.335 137.104 119.457 137.104Z" fill="#FFD483" fill-opacity="0.304461" stroke="#FB940D" stroke-width="1.35747"/>
<path d="M119.457 129.638C122.456 129.638 124.887 127.207 124.887 124.208C124.887 121.209 122.456 118.778 119.457 118.778C116.458 118.778 114.027 121.209 114.027 124.208C114.027 127.207 116.458 129.638 119.457 129.638Z" fill="#FB940D"/>
<path d="M266.47 200.328L278.145 193.562V180.031L278.128 180.022L266.47 186.778V200.328Z" fill="url(#paint26_linear_231_412)"/>
<path d="M266.47 200.323V186.692L254.796 180.023V193.563L266.47 200.323Z" fill="url(#paint27_linear_231_412)"/>
<path d="M254.801 180.028L266.47 186.791L278.14 180.028L266.47 173.265L254.801 180.028Z" fill="url(#paint28_linear_231_412)"/>
<path opacity="0.547768" d="M220.027 159.714L266.464 186.812L278.046 179.977L230.153 152.311L220.027 159.714Z" fill="url(#paint29_linear_231_412)"/>
<path opacity="0.547768" d="M213.69 169.382L266.474 200.326V186.769L225.245 162.824L213.69 169.382Z" fill="url(#paint30_linear_231_412)"/>
<path d="M91.3575 59.1515L103.032 52.3859L103.032 38.8546L103.015 38.8451L91.3575 45.6012V59.1515Z" fill="url(#paint31_linear_231_412)"/>
<path d="M91.3574 59.1466V45.5159L79.6832 38.8463V52.3862L91.3574 59.1466Z" fill="url(#paint32_linear_231_412)"/>
<path d="M79.6877 38.8521L91.357 45.6148L103.027 38.8517L91.3576 32.0889L79.6877 38.8521Z" fill="url(#paint33_linear_231_412)"/>
<path opacity="0.547768" d="M44.9148 18.5374L91.3517 45.6355L102.934 38.8003L55.0406 11.1343L44.9148 18.5374Z" fill="url(#paint34_linear_231_412)"/>
<path opacity="0.547768" d="M38.5774 28.2055L91.361 59.1492V45.5923L50.1318 21.6479L38.5774 28.2055Z" fill="url(#paint35_linear_231_412)"/>
<defs>
<linearGradient id="paint0_linear_231_412" x1="114.921" y1="100.842" x2="83.9138" y2="106.404" gradientUnits="userSpaceOnUse">
<stop stop-color="#FB940D"/>
<stop offset="1" stop-color="#FFB452"/>
</linearGradient>
<linearGradient id="paint1_linear_231_412" x1="114.811" y1="150.554" x2="145.905" y2="156.269" gradientUnits="userSpaceOnUse">
<stop stop-color="#FB940D"/>
<stop offset="1" stop-color="white"/>
</linearGradient>
<linearGradient id="paint2_linear_231_412" x1="90.2837" y1="124.992" x2="148.632" y2="124.992" gradientUnits="userSpaceOnUse">
<stop stop-color="#FB940D"/>
<stop offset="1" stop-color="white"/>
</linearGradient>
<linearGradient id="paint3_linear_231_412" x1="158.722" y1="28.2719" x2="140.12" y2="31.6169" gradientUnits="userSpaceOnUse">
<stop stop-color="#FB940D"/>
<stop offset="1" stop-color="#FFB452"/>
</linearGradient>
<linearGradient id="paint4_linear_231_412" x1="158.656" y1="58.024" x2="177.309" y2="61.461" gradientUnits="userSpaceOnUse">
<stop stop-color="#FB940D"/>
<stop offset="1" stop-color="white"/>
</linearGradient>
<linearGradient id="paint5_linear_231_412" x1="143.939" y1="42.7252" x2="178.948" y2="42.7252" gradientUnits="userSpaceOnUse">
<stop stop-color="#FB940D"/>
<stop offset="1" stop-color="white"/>
</linearGradient>
<linearGradient id="paint6_linear_231_412" x1="187.317" y1="146.025" x2="264.43" y2="100.921" gradientUnits="userSpaceOnUse">
<stop stop-color="#5E5E5F"/>
<stop offset="1" stop-color="#C5C5C5"/>
</linearGradient>
<linearGradient id="paint7_linear_231_412" x1="159.496" y1="189.81" x2="140.894" y2="193.155" gradientUnits="userSpaceOnUse">
<stop stop-color="#FB940D"/>
<stop offset="1" stop-color="#FFB452"/>
</linearGradient>
<linearGradient id="paint8_linear_231_412" x1="159.43" y1="219.563" x2="178.083" y2="223" gradientUnits="userSpaceOnUse">
<stop stop-color="#FB940D"/>
<stop offset="1" stop-color="white"/>
</linearGradient>
<linearGradient id="paint9_linear_231_412" x1="144.713" y1="204.264" x2="179.722" y2="204.264" gradientUnits="userSpaceOnUse">
<stop stop-color="#FB940D"/>
<stop offset="1" stop-color="white"/>
</linearGradient>
<linearGradient id="paint10_linear_231_412" x1="192.526" y1="87.9731" x2="167.721" y2="92.4265" gradientUnits="userSpaceOnUse">
<stop stop-color="#FB940D"/>
<stop offset="1" stop-color="#FFB452"/>
</linearGradient>
<linearGradient id="paint11_linear_231_412" x1="192.437" y1="127.705" x2="217.311" y2="132.281" gradientUnits="userSpaceOnUse">
<stop stop-color="#FB940D"/>
<stop offset="1" stop-color="white"/>
</linearGradient>
<linearGradient id="paint12_linear_231_412" x1="172.815" y1="107.275" x2="219.494" y2="107.275" gradientUnits="userSpaceOnUse">
<stop stop-color="#FB940D"/>
<stop offset="1" stop-color="white"/>
</linearGradient>
<linearGradient id="paint13_linear_231_412" x1="49.3126" y1="143.992" x2="24.5081" y2="148.445" gradientUnits="userSpaceOnUse">
<stop stop-color="#FB940D"/>
<stop offset="1" stop-color="#FFB452"/>
</linearGradient>
<linearGradient id="paint14_linear_231_412" x1="49.2242" y1="183.724" x2="74.0977" y2="188.3" gradientUnits="userSpaceOnUse">
<stop stop-color="#FB940D"/>
<stop offset="1" stop-color="white"/>
</linearGradient>
<linearGradient id="paint15_linear_231_412" x1="29.6028" y1="163.293" x2="76.2811" y2="163.293" gradientUnits="userSpaceOnUse">
<stop stop-color="#FB940D"/>
<stop offset="1" stop-color="white"/>
</linearGradient>
<linearGradient id="paint16_linear_231_412" x1="192.703" y1="104.163" x2="168.413" y2="20.6349" gradientUnits="userSpaceOnUse">
<stop stop-color="#606060"/>
<stop offset="1" stop-color="#E0E0E0"/>
</linearGradient>
<linearGradient id="paint17_linear_231_412" x1="306.284" y1="144.325" x2="222.554" y2="75.2088" gradientUnits="userSpaceOnUse">
<stop stop-color="#676767"/>
<stop offset="1" stop-color="#B1B2B2"/>
</linearGradient>
<linearGradient id="paint18_linear_231_412" x1="150.284" y1="-5612.78" x2="89.1255" y2="-5612.78" gradientUnits="userSpaceOnUse">
<stop stop-color="#575959"/>
<stop offset="1" stop-color="#CBCBCB"/>
</linearGradient>
<linearGradient id="paint19_linear_231_412" x1="161.454" y1="77.1249" x2="77.4604" y2="77.1249" gradientUnits="userSpaceOnUse">
<stop stop-color="#6B6C6D"/>
<stop offset="1" stop-color="#AAAFAF"/>
</linearGradient>
<linearGradient id="paint20_linear_231_412" x1="136.161" y1="73.8256" x2="186.726" y2="73.8256" gradientUnits="userSpaceOnUse">
<stop stop-color="#797A7A"/>
<stop offset="1" stop-color="#AFB0B0"/>
</linearGradient>
<linearGradient id="paint21_linear_231_412" x1="136.935" y1="235.364" x2="187.5" y2="235.364" gradientUnits="userSpaceOnUse">
<stop stop-color="#797A7A"/>
<stop offset="1" stop-color="#AFB0B0"/>
</linearGradient>
<linearGradient id="paint22_linear_231_412" x1="0.587884" y1="78.4391" x2="27.1493" y2="78.4391" gradientUnits="userSpaceOnUse">
<stop stop-color="#FFB452"/>
<stop offset="1" stop-color="white" stop-opacity="0.01"/>
</linearGradient>
<linearGradient id="paint23_linear_231_412" x1="106.47" y1="271.199" x2="133.032" y2="271.199" gradientUnits="userSpaceOnUse">
<stop stop-color="#FFB452"/>
<stop offset="1" stop-color="white" stop-opacity="0.01"/>
</linearGradient>
<linearGradient id="paint24_linear_231_412" x1="241.538" y1="86.5839" x2="268.1" y2="86.5839" gradientUnits="userSpaceOnUse">
<stop stop-color="#FFB452"/>
<stop offset="1" stop-color="white" stop-opacity="0.01"/>
</linearGradient>
<linearGradient id="paint25_linear_231_412" x1="200.135" y1="26.8554" x2="226.697" y2="26.8554" gradientUnits="userSpaceOnUse">
<stop stop-color="#FFB452"/>
<stop offset="1" stop-color="white" stop-opacity="0.01"/>
</linearGradient>
<linearGradient id="paint26_linear_231_412" x1="268.285" y1="177.095" x2="280.691" y2="179.312" gradientUnits="userSpaceOnUse">
<stop stop-color="#FB940D"/>
<stop offset="1" stop-color="#FFB452"/>
</linearGradient>
<linearGradient id="paint27_linear_231_412" x1="268.329" y1="197.055" x2="255.888" y2="199.333" gradientUnits="userSpaceOnUse">
<stop stop-color="#FB940D"/>
<stop offset="1" stop-color="white"/>
</linearGradient>
<linearGradient id="paint28_linear_231_412" x1="278.14" y1="186.791" x2="254.801" y2="186.791" gradientUnits="userSpaceOnUse">
<stop stop-color="#FB940D"/>
<stop offset="1" stop-color="white"/>
</linearGradient>
<linearGradient id="paint29_linear_231_412" x1="250.189" y1="197.083" x2="226.02" y2="157.95" gradientUnits="userSpaceOnUse">
<stop stop-color="#FFB452"/>
<stop offset="1" stop-color="white" stop-opacity="0.01"/>
</linearGradient>
<linearGradient id="paint30_linear_231_412" x1="252.484" y1="199.545" x2="213.396" y2="178.608" gradientUnits="userSpaceOnUse">
<stop stop-color="#FB940D"/>
<stop offset="1" stop-color="white" stop-opacity="0.01"/>
</linearGradient>
<linearGradient id="paint31_linear_231_412" x1="93.1718" y1="35.9183" x2="105.578" y2="38.1352" gradientUnits="userSpaceOnUse">
<stop stop-color="#FB940D"/>
<stop offset="1" stop-color="#FFB452"/>
</linearGradient>
<linearGradient id="paint32_linear_231_412" x1="93.2159" y1="55.8786" x2="80.7753" y2="58.1565" gradientUnits="userSpaceOnUse">
<stop stop-color="#FB940D"/>
<stop offset="1" stop-color="white"/>
</linearGradient>
<linearGradient id="paint33_linear_231_412" x1="103.027" y1="45.6148" x2="79.6877" y2="45.6148" gradientUnits="userSpaceOnUse">
<stop stop-color="#FB940D"/>
<stop offset="1" stop-color="white"/>
</linearGradient>
<linearGradient id="paint34_linear_231_412" x1="75.0769" y1="55.9063" x2="50.9077" y2="16.7732" gradientUnits="userSpaceOnUse">
<stop stop-color="#FFB452"/>
<stop offset="1" stop-color="white" stop-opacity="0.01"/>
</linearGradient>
<linearGradient id="paint35_linear_231_412" x1="77.3709" y1="58.3681" x2="38.2834" y2="37.4315" gradientUnits="userSpaceOnUse">
<stop stop-color="#FB940D"/>
<stop offset="1" stop-color="white" stop-opacity="0.01"/>
</linearGradient>
</defs>
</svg>
