<svg width="247" height="180" viewBox="0 0 247 180" fill="none" xmlns="http://www.w3.org/2000/svg">
<g filter="url(#filter0_d_227_513)">
<path d="M6 11C6 6.02943 10.0294 2 15 2H232C236.971 2 241 6.02944 241 11V161C241 165.971 236.971 170 232 170H15C10.0294 170 6 165.971 6 161V11Z" fill="white"/>
<path d="M15 4H232C235.866 4 239 7.13401 239 11V161C239 164.866 235.866 168 232 168H15C11.134 168 8 164.866 8 161V11C8 7.13401 11.134 4 15 4Z" stroke="#FB940D" stroke-width="4"/>
</g>
<g clip-path="url(#clip0_227_513)">
<path d="M208.903 133.338L213.401 142.163C213.617 142.587 213.594 143.091 213.34 143.494C213.086 143.897 212.638 144.142 212.155 144.142H205.389L201.33 149.453C201.066 149.8 200.652 150 200.216 150C199.637 150 199.181 149.661 198.969 149.244L194.731 140.926C200.461 140.389 205.514 137.538 208.903 133.338Z" fill="#FB940D"/>
<path d="M172.106 142.163L176.604 133.338C179.994 137.538 185.046 140.389 190.776 140.926L186.538 149.244C186.326 149.661 185.87 150 185.291 150C184.855 150 184.441 149.8 184.177 149.453L180.118 144.142H173.352C172.869 144.142 172.421 143.897 172.167 143.494C171.913 143.091 171.89 142.587 172.106 142.163V142.163Z" fill="#FB940D"/>
<path d="M190.422 116.791L192.754 113.135L195.085 116.791C195.276 117.09 195.578 117.306 195.928 117.392L200.191 118.438L197.369 121.743C197.137 122.014 197.022 122.363 197.047 122.716L197.351 127.017L193.275 125.405C193.081 125.329 192.685 125.226 192.233 125.405L188.157 127.017L188.46 122.716C188.485 122.363 188.369 122.014 188.138 121.743L185.315 118.438L189.579 117.392C189.928 117.306 190.23 117.09 190.422 116.791V116.791Z" fill="#FB940D"/>
<path d="M174.943 120.809C174.943 111.173 182.933 103.333 192.753 103.333C202.574 103.333 210.563 111.173 210.563 120.809C210.563 130.445 202.574 138.285 192.753 138.285C182.933 138.285 174.943 130.445 174.943 120.809ZM181.75 118.519L185.641 123.077L185.223 129.008C185.19 129.478 185.405 129.931 185.793 130.208C186.182 130.485 186.688 130.546 187.133 130.37L192.753 128.147L198.373 130.37C198.524 130.43 199.124 130.628 199.713 130.208C200.101 129.931 200.317 129.478 200.284 129.008L199.865 123.077L203.756 118.52C204.065 118.158 204.162 117.667 204.014 117.219C203.865 116.771 203.492 116.429 203.026 116.315L197.149 114.873L193.934 109.833C193.68 109.434 193.233 109.191 192.753 109.191C192.273 109.191 191.827 109.434 191.572 109.833L188.357 114.873L182.48 116.315C182.014 116.429 181.641 116.771 181.492 117.219C181.344 117.667 181.441 118.158 181.75 118.519V118.519Z" fill="#FB940D"/>
</g>
<rect x="-0.5" y="0.5" width="46.5595" height="45.6667" transform="matrix(-1 0 0 1 215.521 103.333)" stroke="#FB940D"/>
<rect x="102.114" y="24.3581" width="110.934" height="4.23424" rx="2.11712" fill="#E0E0E0" stroke="#D4D4D4"/>
<rect x="29.5806" y="107.833" width="120.696" height="4.33334" rx="2.16667" fill="#E0E0E0" stroke="#D4D4D4"/>
<rect x="29.5103" y="78.4166" width="144.485" height="3.4164" rx="1.7082" fill="#E0E0E0" stroke="#D4D4D4"/>
<rect x="102.717" y="53.3489" width="96.9741" height="4.23424" rx="2.11712" fill="#E0E0E0" stroke="#D4D4D4"/>
<rect x="29.9595" y="136.935" width="92.4991" height="4.23425" rx="2.11713" fill="#E0E0E0" stroke="#D4D4D4"/>
<rect x="102.717" y="38.8535" width="93.9567" height="4.23424" rx="2.11712" fill="#E0E0E0" stroke="#D4D4D4"/>
<rect x="29.5103" y="122.581" width="42.5528" height="4.29969" rx="2.14984" fill="#E0E0E0" stroke="#D4D4D4"/>
<rect x="87.8896" y="122.581" width="42.5528" height="4.29969" rx="2.14984" fill="#E0E0E0" stroke="#D4D4D4"/>
<rect x="29.5103" y="93.4323" width="53.6727" height="4.29969" rx="2.14984" fill="#E0E0E0" stroke="#D4D4D4"/>
<rect x="95.3027" y="93.4323" width="53.6727" height="4.29969" rx="2.14984" fill="#E0E0E0" stroke="#D4D4D4"/>
<path d="M51.7335 27.4339C50.8587 26.1445 49.7261 25.032 48.4002 24.1599C47.0744 23.2878 45.5813 22.6732 44.0062 22.3511C42.4312 22.029 40.805 22.0058 39.2206 22.2828C37.6361 22.5598 36.1244 23.1315 34.7717 23.9653C33.4191 24.7992 32.252 25.8788 31.3371 27.1426C30.4221 28.4064 29.7773 29.8296 29.4394 31.3309C29.1015 32.8322 29.0771 34.3823 29.3677 35.8925C29.6583 37.4028 30.2581 38.8438 31.1329 40.1331L41.9908 56.1891L45.1014 54.287L34.2435 38.231C33.6305 37.3312 33.2095 36.325 33.0046 35.2699C32.7996 34.2149 32.8148 33.1317 33.0491 32.0823C33.2835 31.0329 33.7325 30.0377 34.3704 29.1537C35.0084 28.2698 35.8228 27.5142 36.7672 26.9304V26.9304C37.7113 26.346 38.7669 25.9447 39.8738 25.7494C40.9806 25.5541 42.1169 25.5685 43.2179 25.7919C44.3189 26.0153 45.3629 26.4433 46.2903 27.0514C47.2177 27.6595 48.0103 28.4358 48.6229 29.3359L51.0292 32.9164L54.3159 31.294L51.7335 27.4339Z" fill="#E8505B"/>
<path d="M51.7335 27.4339C50.8587 26.1445 49.7261 25.032 48.4002 24.1599C47.0744 23.2878 45.5813 22.6732 44.0062 22.3511C42.4312 22.029 40.805 22.0058 39.2206 22.2828C37.6361 22.5598 36.1244 23.1315 34.7717 23.9653C33.4191 24.7992 32.252 25.8788 31.3371 27.1426C30.4221 28.4064 29.7773 29.8296 29.4394 31.3309C29.1015 32.8322 29.0771 34.3823 29.3677 35.8925C29.6583 37.4028 30.2581 38.8438 31.1329 40.1331L41.9908 56.1891L45.1014 54.287L34.2435 38.231C33.6305 37.3312 33.2095 36.325 33.0046 35.2699C32.7996 34.2149 32.8148 33.1317 33.0491 32.0823C33.2835 31.0329 33.7325 30.0377 34.3704 29.1537C35.0084 28.2698 35.8228 27.5142 36.7672 26.9304V26.9304C37.7113 26.346 38.7669 25.9447 39.8738 25.7494C40.9806 25.5541 42.1169 25.5685 43.2179 25.7919C44.3189 26.0153 45.3629 26.4433 46.2903 27.0514C47.2177 27.6595 48.0103 28.4358 48.6229 29.3359L51.0292 32.9164L54.3159 31.294L51.7335 27.4339Z" fill="#FFF3E2"/>
<path opacity="0.3" d="M51.7374 27.4339C50.8626 26.1445 49.73 25.032 48.4041 24.1599C47.0783 23.2878 45.5852 22.6732 44.0102 22.3511C42.4351 22.029 40.8089 22.0058 39.2245 22.2828C37.64 22.5598 36.1283 23.1315 34.7756 23.9653C33.423 24.7992 32.2559 25.8788 31.341 27.1426C30.426 28.4064 29.7812 29.8296 29.4433 31.3309C29.1054 32.8322 29.081 34.3823 29.3716 35.8925C29.6622 37.4028 30.262 38.8438 31.1368 40.1331L41.9947 56.1891L45.1053 54.287L34.2474 38.231C33.6344 37.3312 33.2134 36.325 33.0085 35.2699C32.8035 34.2149 32.8187 33.1317 33.053 32.0823C33.2874 31.0329 33.7364 30.0377 34.3744 29.1537C35.0123 28.2698 35.8268 27.5142 36.7711 26.9304V26.9304C37.7152 26.346 38.7708 25.9447 39.8777 25.7494C40.9845 25.5541 42.1208 25.5685 43.2218 25.7919C44.3228 26.0153 45.3668 26.4433 46.2942 27.0514C47.2216 27.6595 48.0142 28.4358 48.6268 29.3359L51.0331 32.9164L54.3198 31.294L51.7374 27.4339Z" fill="black"/>
<path d="M58.2587 36.1128L36.6998 49.3562C34.9833 50.4107 34.4886 52.5919 35.5948 54.228L43.0694 65.2835C44.1757 66.9197 46.4639 67.3913 48.1805 66.3368L69.7394 53.0934C71.4559 52.039 71.9506 49.8578 70.8444 48.2216L63.3698 37.1661C62.2635 35.53 59.9753 35.0584 58.2587 36.1128Z" fill="#FB940D"/>
<path d="M69.7519 53.0563C70.0202 52.8474 70.275 52.6232 70.5148 52.385C71.1238 51.6588 71.4178 50.7379 71.3365 49.8115C71.314 49.4843 71.2346 49.163 71.1018 48.8605C70.9724 48.5218 70.7947 48.2018 70.5735 47.9094L69.1649 45.8955L65.7609 40.9165L63.7654 38.0074C63.4615 37.4784 63.0867 36.9894 62.6502 36.5528C62.1784 36.1551 61.6157 35.8678 61.0069 35.7137C60.3378 35.6019 59.6496 35.6597 59.0114 35.8815C58.3752 36.1659 57.7664 36.5028 57.1919 36.8885L53.4944 39.1822L36.7674 49.4759C36.0741 49.9161 35.5571 50.5667 35.3001 51.322C35.0644 52.1003 35.1268 52.9332 35.4762 53.6717C35.6698 54.0195 35.8854 54.3558 36.1218 54.6787C36.3582 55.0016 36.5738 55.3379 36.7674 55.6857L38.176 57.6996C39.9367 60.385 41.6975 62.9584 43.3408 65.364C43.7627 65.9227 44.3572 66.3417 45.0412 66.5624C45.7253 66.7831 46.4646 66.7944 47.1557 66.5947C47.8093 66.3674 48.4227 66.0467 48.9752 65.6437L50.7359 64.5807L57.0746 60.6647L66.3478 55.0703L68.8128 53.5598L69.5171 53.1682L69.7519 53.0563L69.5171 53.2241L68.8715 53.6157L66.4065 55.1822L57.2506 60.8885L50.912 64.8045L49.1512 65.8675L48.2709 66.4269L47.2731 66.8745C46.5173 67.072 45.7167 67.0497 44.9742 66.8105C44.2317 66.5712 43.5812 66.126 43.1061 65.5318C41.404 63.1262 39.702 60.5528 37.8825 57.8675L36.5326 55.8535L35.8283 54.8465C35.579 54.5121 35.3628 54.1562 35.1827 53.7836C34.7766 52.9997 34.7133 52.0944 35.0067 51.2661C35.2634 50.4201 35.8244 49.6873 36.5913 49.1962L53.3183 38.9584L57.0746 36.6647L57.9549 36.1053C58.2546 35.8838 58.5921 35.7135 58.9527 35.6018C59.6305 35.3691 60.3649 35.3302 61.0656 35.4899C61.7319 35.6171 62.3443 35.9284 62.8263 36.385C63.2866 36.8363 63.6814 37.3443 64.0001 37.8955C64.7044 38.9025 65.35 39.8535 65.9369 40.8046L69.341 45.7836L70.6909 47.8535C70.9121 48.1458 71.0898 48.4659 71.2191 48.8046C71.3465 49.1087 71.4256 49.4292 71.4539 49.7556C71.5006 50.2408 71.4412 50.7299 71.2796 51.1921C71.118 51.6543 70.8576 52.0795 70.5148 52.4409C70.2848 52.672 70.029 52.8783 69.7519 53.0563V53.0563Z" fill="#263238"/>
<g opacity="0.5">
<path opacity="0.5" d="M54.0223 47.5737C53.748 47.1589 53.3575 46.8254 52.8948 46.611C52.4321 46.3966 51.9158 46.3098 51.404 46.3603C50.8923 46.4109 50.4057 46.5969 49.999 46.8973C49.5923 47.1977 49.2819 47.6005 49.1028 48.0602C48.9237 48.5199 48.883 49.0181 48.9853 49.4987C49.0876 49.9793 49.3289 50.423 49.6819 50.7798C50.0349 51.1365 50.4855 51.3921 50.9829 51.5175C51.4802 51.643 52.0045 51.6334 52.4964 51.4898L54.7266 54.7905L56.0178 54.0073L53.7876 50.7066C54.184 50.2823 54.422 49.745 54.4645 49.1783C54.507 48.6116 54.3515 48.0474 54.0223 47.5737V47.5737Z" fill="black"/>
</g>
<path d="M45.4531 65.6997C45.3944 65.7556 43.4576 62.9025 41.0513 59.434C38.6449 55.9654 36.8255 53.1123 36.8842 53.0564C36.9429 53.0004 38.9384 55.7976 41.286 59.3221C43.6337 62.8466 45.5118 65.6438 45.4531 65.6997Z" fill="#FAFAFA"/>
<path d="M51.7923 52.9445H51.4402C51.0955 52.9327 50.7565 52.8567 50.4424 52.7207C49.9145 52.5267 49.4366 52.2263 49.0416 51.8401C48.6466 51.4539 48.3436 50.991 48.1535 50.483C47.9726 49.9698 47.9052 49.4264 47.9557 48.8872C48.0062 48.348 48.1735 47.8246 48.4469 47.3501C48.6347 47.0867 48.8511 46.843 49.0925 46.6228L49.386 46.399C49.4447 46.455 49.0338 46.7347 48.623 47.462C48.145 48.3841 48.0608 49.447 48.3882 50.427C48.5727 50.8984 48.8549 51.3295 49.2179 51.6948C49.5809 52.06 50.0173 52.3518 50.5011 52.5529C50.9219 52.7108 51.3532 52.8417 51.7923 52.9445V52.9445Z" fill="#FAFAFA"/>
<path d="M57.4854 26.2591C57.503 24.7449 57.6009 23.2325 57.7788 21.7277C57.8851 20.2079 58.0811 18.695 58.3657 17.1962C58.4831 17.1962 58.307 19.2102 58.0723 21.7277C57.8375 24.2451 57.6027 26.2591 57.4854 26.2591Z" fill="#263238"/>
<path d="M72.569 16.1333C72.6277 16.1892 69.7518 19.2662 66.113 22.9585C62.4741 26.6508 59.5396 29.6158 59.4809 29.5598C59.4222 29.5039 62.298 26.427 65.8782 22.7347C69.4584 19.0424 72.5103 16.0773 72.569 16.1333Z" fill="#263238"/>
<path d="M75.4447 31.0145C75.4447 31.1264 73.0971 31.0145 70.1625 30.7907C67.2279 30.5669 64.939 30.3991 64.939 30.2872C64.939 30.1753 67.2866 30.3431 70.2212 30.511C73.1557 30.6788 75.4447 30.9585 75.4447 31.0145Z" fill="#263238"/>
<defs>
<filter id="filter0_d_227_513" x="0" y="0" width="247" height="180" filterUnits="userSpaceOnUse" color-interpolation-filters="sRGB">
<feFlood flood-opacity="0" result="BackgroundImageFix"/>
<feColorMatrix in="SourceAlpha" type="matrix" values="0 0 0 0 0 0 0 0 0 0 0 0 0 0 0 0 0 0 127 0" result="hardAlpha"/>
<feOffset dy="4"/>
<feGaussianBlur stdDeviation="3"/>
<feColorMatrix type="matrix" values="0 0 0 0 0 0 0 0 0 0 0 0 0 0 0 0 0 0 0.04 0"/>
<feBlend mode="normal" in2="BackgroundImageFix" result="effect1_dropShadow_227_513"/>
<feBlend mode="normal" in="SourceGraphic" in2="effect1_dropShadow_227_513" result="shape"/>
</filter>
<clipPath id="clip0_227_513">
<rect width="47.5595" height="46.6667" transform="matrix(-1 0 0 1 216.521 103.333)" fill="white"/>
</clipPath>
</defs>
</svg>
