<svg width="364" height="184" viewBox="0 0 364 184" fill="none" xmlns="http://www.w3.org/2000/svg">
<path d="M137.04 31.6066C137.04 32.3842 136.41 33.0139 135.634 33.0139C134.856 33.0139 134.226 32.3842 134.226 31.6066C134.226 30.83 134.856 30.1998 135.634 30.1998C136.41 30.1998 137.04 30.83 137.04 31.6066Z" fill="#A1A6DB"/>
<path d="M144.894 79.8984C144.694 79.9855 144.461 79.8935 144.374 79.6924L142.995 76.5051L139.808 77.8841C139.607 77.9712 139.374 77.8786 139.288 77.6781L137.909 74.4913L134.722 75.8704C134.52 75.9574 134.288 75.8654 134.201 75.6643L132.821 72.477L129.635 73.856C129.434 73.9425 129.201 73.8505 129.114 73.65C129.028 73.4489 129.12 73.2164 129.32 73.1293L132.87 71.5932C133.071 71.5062 133.304 71.5987 133.391 71.7993L134.77 74.9866L137.958 73.6076C138.158 73.5205 138.391 73.6131 138.478 73.8136L139.857 77.0004L143.044 75.6213C143.245 75.5343 143.477 75.6268 143.564 75.8274L145.1 79.3783C145.188 79.5789 145.096 79.8114 144.894 79.8984" fill="#87D8EA"/>
<path d="M148.861 73.5294L152.029 74.9829L151.703 71.5134L148.861 73.5294ZM152.847 75.7939C152.818 75.8561 152.773 75.9107 152.716 75.9514C152.601 76.0335 152.45 76.0473 152.322 75.9884L147.907 73.963C147.779 73.9041 147.692 73.7812 147.678 73.6407C147.665 73.4997 147.728 73.3619 147.844 73.2804L151.805 70.471C151.92 70.3889 152.07 70.3746 152.199 70.4336C152.328 70.4925 152.415 70.6159 152.427 70.7564L152.881 75.5917C152.887 75.6617 152.875 75.7316 152.847 75.7939" fill="#F46B76"/>
<path d="M207.683 156.503L206.201 155.728L206.978 154.246C207.077 154.053 207.005 153.814 206.812 153.712C206.614 153.611 206.377 153.686 206.278 153.879L205.501 155.361L204.019 154.586C203.826 154.484 203.584 154.56 203.484 154.753C203.385 154.947 203.457 155.185 203.65 155.287L205.132 156.063L204.36 157.545C204.256 157.738 204.333 157.977 204.526 158.079C204.719 158.18 204.961 158.105 205.06 157.912L205.837 156.43L207.319 157.205C207.512 157.307 207.749 157.232 207.854 157.038C207.953 156.844 207.876 156.605 207.683 156.503Z" fill="#87D8EA"/>
<path d="M250.024 183.971H6.2661C2.8055 183.971 0 181.166 0 177.705V174.572H256.289V177.705C256.289 181.166 253.484 183.971 250.024 183.971" fill="#FB940D"/>
<path d="M238.118 27.3137H18.1719C14.7113 27.3137 11.9058 30.1192 11.9058 33.5803V174.572H244.388V33.5803C244.388 30.1192 241.578 27.3137 238.118 27.3137Z" fill="#959799"/>
<path d="M20.6787 165.799V36.0866H235.611V165.799H20.6787Z" fill="#F8F8F8"/>
<g filter="url(#filter0_d_227_460)">
<rect x="37.0278" y="14.971" width="182.5" height="122.478" rx="3.64042" fill="white"/>
</g>
<rect x="126.983" y="34.1785" width="21.3416" height="21.7412" rx="1.30032" fill="#FB940D"/>
<path d="M134.18 39.3112H136.286V48.4862H141.014V50.4835H134.18V39.3112Z" fill="white"/>
<path d="M51.0649 123.618H71.8159C72.7355 123.618 73.4809 122.873 73.481 121.953V107.685C73.4808 106.765 72.7354 106.02 71.8159 106.02H51.0649C50.1455 106.02 49.4001 106.765 49.3999 107.685V121.953C49.3999 122.873 50.1454 123.618 51.0649 123.618Z" fill="white" stroke="#959799" stroke-width="0.409853"/>
<path d="M50.5332 123.618H72.3467C72.9729 123.618 73.4804 123.111 73.4805 122.485V113.802L70.6787 111.061C70.0994 110.494 69.1606 110.538 68.6367 111.156L63.5693 117.147C62.9611 117.865 61.9018 117.997 61.1367 117.447L58.4219 115.498C57.852 115.089 57.0668 115.166 56.5879 115.679L49.6162 123.141C49.822 123.43 50.1547 123.618 50.5332 123.618Z" fill="#BDBDBD" stroke="#959799" stroke-width="0.409853"/>
<path d="M55.1152 112.572C56.4806 112.831 57.651 111.661 57.3926 110.296C57.2492 109.54 56.635 108.926 55.8789 108.782C54.5135 108.524 53.3435 109.694 53.6025 111.06C53.7459 111.815 54.3596 112.429 55.1152 112.572Z" fill="#FB940D" stroke="#959799" stroke-width="0.819706"/>
<rect opacity="0.5" x="44.3276" y="35.2488" width="24.3333" height="2.43333" rx="1.21666" fill="#C4C4C4"/>
<rect x="44.3276" y="47.4154" width="68.9443" height="3.24444" rx="1.62222" fill="#E0E0E0"/>
<rect x="127.461" y="68.5788" width="80.4893" height="2.61047" rx="1.30523" fill="#E0E0E0"/>
<rect x="44.3276" y="89.5931" width="68.9443" height="2.43333" rx="1.21666" fill="#E0E0E0"/>
<rect x="127.461" y="120.975" width="80.4893" height="2.61047" rx="1.30523" fill="#E0E0E0"/>
<rect x="44.3276" y="68.5042" width="68.9443" height="2.43333" rx="1.21666" fill="#E0E0E0"/>
<rect x="127.461" y="94.7767" width="80.4893" height="2.61047" rx="1.30523" fill="#E0E0E0"/>
<rect x="77.8301" y="108.472" width="31.2929" height="2.06651" rx="1.03326" fill="#E0E0E0"/>
<rect x="154.727" y="38.4468" width="49.0858" height="2.13416" rx="1.06708" fill="#E0E0E0"/>
<rect x="44.3276" y="57.9599" width="68.9443" height="2.43333" rx="1.21666" fill="#E0E0E0"/>
<rect x="127.461" y="81.6775" width="80.4893" height="2.61047" rx="1.30523" fill="#E0E0E0"/>
<rect x="44.3276" y="79.0487" width="68.9443" height="2.43333" rx="1.21666" fill="#E0E0E0"/>
<rect x="127.461" y="107.876" width="80.4893" height="2.61047" rx="1.30523" fill="#E0E0E0"/>
<rect x="77.8301" y="116.443" width="31.2929" height="1.77129" rx="0.885647" fill="#E0E0E0"/>
<rect x="154.727" y="48.0506" width="49.0858" height="3.20125" rx="1.60062" fill="#E0E0E0"/>
<rect width="15.0441" height="63.5268" transform="matrix(-0.888766 0.458361 0.458361 0.888766 334.757 118.46)" fill="#FFD59E"/>
<path d="M321.387 182.072V102.319H291.954V182.072H321.387Z" fill="#FFB452"/>
<path d="M302.398 124.696V160.646C302.398 163.565 304.311 165.932 306.67 165.932C309.03 165.932 310.943 163.565 310.943 160.646V124.696C310.943 121.776 309.03 119.409 306.67 119.409C304.311 119.409 302.398 121.776 302.398 124.696Z" fill="#FFF5F5"/>
<rect width="21.9842" height="104.136" transform="matrix(-1 0 0 1 284.029 78.5834)" fill="#FB940D"/>
<rect width="21.9842" height="59.8481" transform="matrix(-1 0 0 1 284.029 100.128)" fill="#FFB452"/>
<defs>
<filter id="filter0_d_227_460" x="19.2052" y="-1.38283e-05" width="218.145" height="158.123" filterUnits="userSpaceOnUse" color-interpolation-filters="sRGB">
<feFlood flood-opacity="0" result="BackgroundImageFix"/>
<feColorMatrix in="SourceAlpha" type="matrix" values="0 0 0 0 0 0 0 0 0 0 0 0 0 0 0 0 0 0 127 0" result="hardAlpha"/>
<feOffset dy="2.85163"/>
<feGaussianBlur stdDeviation="8.91134"/>
<feColorMatrix type="matrix" values="0 0 0 0 0 0 0 0 0 0 0 0 0 0 0 0 0 0 0.08 0"/>
<feBlend mode="normal" in2="BackgroundImageFix" result="effect1_dropShadow_227_460"/>
<feBlend mode="normal" in="SourceGraphic" in2="effect1_dropShadow_227_460" result="shape"/>
</filter>
</defs>
</svg>
