<svg width="307" height="165" viewBox="0 0 307 165" fill="none" xmlns="http://www.w3.org/2000/svg">
<path d="M144.337 4.52202C144.337 5.34079 143.674 6.00375 142.857 6.00375C142.038 6.00375 141.375 5.34079 141.375 4.52202C141.375 3.70438 142.038 3.04086 142.857 3.04086C143.674 3.04086 144.337 3.70438 144.337 4.52202Z" fill="#A1A6DB"/>
<path d="M152.61 55.3851C152.399 55.4768 152.154 55.3799 152.062 55.168L150.61 51.811L147.253 53.2635C147.042 53.3552 146.796 53.2577 146.705 53.0464L145.253 49.69L141.896 51.1425C141.684 51.2342 141.439 51.1372 141.347 50.9254L139.895 47.5684L136.538 49.0209C136.326 49.112 136.081 49.0151 135.99 48.8039C135.899 48.592 135.996 48.3471 136.207 48.2555L139.946 46.6376C140.158 46.5459 140.403 46.6434 140.494 46.8546L141.947 50.2117L145.304 48.7592C145.515 48.6675 145.761 48.765 145.852 48.9762L147.305 52.3327L150.661 50.8802C150.873 50.7885 151.118 50.886 151.209 51.0972L152.827 54.8373C152.92 55.0485 152.823 55.2934 152.61 55.3851" fill="#87D8EA"/>
<path d="M156.788 48.6769L160.125 50.2077L159.782 46.5536L156.788 48.6769ZM160.986 51.0619C160.956 51.1275 160.909 51.1849 160.849 51.2279C160.727 51.3144 160.569 51.3289 160.434 51.2668L155.784 49.1336C155.648 49.0715 155.557 48.9421 155.543 48.7941C155.529 48.6455 155.595 48.5005 155.717 48.4146L159.889 45.4556C160.01 45.3691 160.168 45.3541 160.304 45.4162C160.439 45.4782 160.531 45.6082 160.544 45.7562L161.023 50.849C161.029 50.9227 161.016 50.9964 160.986 51.0619" fill="#F46B76"/>
<path d="M218.743 136.069L217.182 135.253L218 133.692C218.105 133.488 218.029 133.236 217.826 133.13C217.617 133.023 217.368 133.102 217.263 133.305L216.445 134.866L214.884 134.05C214.681 133.943 214.426 134.022 214.321 134.226C214.217 134.43 214.292 134.681 214.495 134.789L216.056 135.605L215.244 137.166C215.134 137.37 215.215 137.622 215.418 137.729C215.621 137.835 215.876 137.756 215.981 137.553L216.799 135.992L218.36 136.808C218.563 136.916 218.813 136.837 218.923 136.632C219.028 136.428 218.946 136.177 218.743 136.069Z" fill="#87D8EA"/>
<path d="M263.339 165H6.59979C2.95491 165 0 162.045 0 158.4V155.1H269.937V158.4C269.937 162.045 266.983 165 263.339 165" fill="#FB940D"/>
<path d="M250.799 4.86474e-06H19.1398C15.4949 4.86474e-06 12.54 2.95491 12.54 6.60038V155.1H257.403V6.60038C257.403 2.95491 254.443 4.86474e-06 250.799 4.86474e-06Z" fill="#959799"/>
<path d="M21.7803 145.86V9.24016H248.159V145.86H21.7803Z" fill="white"/>
<path d="M302.478 31.3859H208.664C206.34 31.3859 204.457 32.6607 204.457 34.2333V59.0276C204.457 60.6002 206.34 61.875 208.664 61.875H302.478C304.801 61.875 306.685 60.6002 306.685 59.0276V34.2333C306.685 32.6607 304.801 31.3859 302.478 31.3859Z" fill="#FB940D"/>
<path d="M302.478 66.3587H208.664C206.34 66.3587 204.457 67.6336 204.457 69.2062V94.0004C204.457 95.573 206.34 96.8479 208.664 96.8479H302.478C304.801 96.8479 306.685 95.573 306.685 94.0004V69.2062C306.685 67.6336 304.801 66.3587 302.478 66.3587Z" fill="#FB940D"/>
<path d="M227.989 48.06V44.533H226.268C226.141 44.0991 225.968 43.6803 225.75 43.284L226.967 42.0674L224.475 39.5758L223.258 40.7925C222.86 40.5737 222.439 40.4001 222.003 40.2748V38.5598H218.482V40.2812C218.045 40.4066 217.624 40.5802 217.226 40.799L216.009 39.5823L213.55 42.0674L214.767 43.284C214.549 43.6803 214.375 44.0991 214.249 44.533H212.527V48.06H214.197C214.323 48.4965 214.496 48.9176 214.715 49.3155L213.55 50.5321L216.042 53.0237L217.258 51.807C217.656 52.0258 218.078 52.1994 218.514 52.3248V54.0462H222.035V52.3248C222.471 52.1994 222.893 52.0258 223.291 51.807L224.507 53.0237L226.999 50.5321L225.782 49.3155C226.001 48.9176 226.175 48.4965 226.3 48.06H227.989ZM220.223 50.3445C219.421 50.3406 218.638 50.0989 217.974 49.65C217.309 49.2011 216.793 48.5651 216.49 47.8226C216.188 47.0802 216.112 46.2646 216.273 45.4791C216.435 44.6937 216.825 43.9738 217.396 43.4105C217.966 42.8471 218.691 42.4658 219.479 42.3147C220.266 42.1637 221.081 42.2496 221.82 42.5618C222.558 42.8739 223.188 43.3982 223.628 44.0682C224.068 44.7383 224.3 45.5239 224.294 46.3257C224.287 47.395 223.857 48.4181 223.098 49.1713C222.338 49.9244 221.312 50.3462 220.242 50.3445H220.223Z" fill="white"/>
<path d="M227.989 83.0328V79.5058H226.268C226.141 79.0719 225.968 78.6531 225.75 78.2568L226.967 77.0402L224.475 74.5487L223.258 75.7653C222.86 75.5466 222.439 75.3729 222.003 75.2476V73.5326H218.482V75.2541C218.045 75.3794 217.624 75.553 217.226 75.7718L216.009 74.5551L213.55 77.0402L214.767 78.2568C214.549 78.6531 214.375 79.0719 214.249 79.5058H212.527V83.0328H214.197C214.323 83.4693 214.496 83.8904 214.715 84.2883L213.55 85.505L216.042 87.9965L217.258 86.7798C217.656 86.9986 218.078 87.1722 218.514 87.2976V89.019H222.035V87.2976C222.471 87.1722 222.893 86.9986 223.291 86.7798L224.507 87.9965L226.999 85.505L225.782 84.2883C226.001 83.8904 226.175 83.4693 226.3 83.0328H227.989ZM220.223 85.3173C219.421 85.3134 218.638 85.0717 217.974 84.6228C217.309 84.1739 216.793 83.5379 216.49 82.7954C216.188 82.053 216.112 81.2374 216.273 80.452C216.435 79.6665 216.825 78.9466 217.396 78.3833C217.966 77.8199 218.691 77.4386 219.479 77.2875C220.266 77.1365 221.081 77.2224 221.82 77.5346C222.558 77.8467 223.188 78.371 223.628 79.041C224.068 79.7111 224.3 80.4967 224.294 81.2985C224.287 82.3678 223.857 83.3909 223.098 84.1441C222.338 84.8972 221.312 85.319 220.242 85.3173H220.223Z" fill="white"/>
<path d="M237.497 43.4458C237.491 43.5723 237.448 43.6941 237.373 43.7961C237.298 43.8982 237.195 43.9761 237.076 44.0202C236.957 44.0642 236.828 44.0725 236.705 44.044C236.582 44.0155 236.469 43.9515 236.382 43.8598C236.295 43.7681 236.236 43.6529 236.214 43.5283C236.191 43.4037 236.206 43.2753 236.256 43.1589C236.306 43.0425 236.388 42.9433 236.494 42.8735C236.6 42.8038 236.723 42.7665 236.85 42.7663C236.938 42.7662 237.025 42.784 237.105 42.8185C237.186 42.853 237.259 42.9036 237.32 42.9672C237.38 43.0307 237.427 43.1059 237.458 43.1882C237.488 43.2705 237.502 43.3582 237.497 43.4458V43.4458Z" fill="white"/>
<path d="M237.497 78.4187C237.491 78.5451 237.448 78.6669 237.373 78.769C237.298 78.8711 237.195 78.9489 237.076 78.993C236.957 79.0371 236.828 79.0454 236.705 79.0169C236.582 78.9883 236.469 78.9243 236.382 78.8326C236.295 78.741 236.236 78.6257 236.214 78.5011C236.191 78.3766 236.206 78.2481 236.256 78.1318C236.306 78.0154 236.388 77.9162 236.494 77.8464C236.6 77.7766 236.723 77.7393 236.85 77.7392C236.938 77.7391 237.025 77.7568 237.105 77.7913C237.186 77.8259 237.259 77.8764 237.32 77.94C237.38 78.0036 237.427 78.0788 237.458 78.1611C237.488 78.2434 237.502 78.331 237.497 78.4187V78.4187Z" fill="white"/>
<path d="M246.61 43.4458C246.603 43.5699 246.561 43.6895 246.488 43.7902C246.416 43.891 246.315 43.9687 246.2 44.0139C246.084 44.0592 245.957 44.0703 245.836 44.0457C245.714 44.0211 245.602 43.962 245.512 43.8753C245.423 43.7887 245.361 43.6782 245.333 43.5571C245.305 43.4361 245.312 43.3095 245.355 43.1925C245.397 43.0755 245.471 42.9732 245.57 42.8976C245.669 42.822 245.787 42.7764 245.911 42.7663C246.003 42.7588 246.096 42.7711 246.182 42.8023C246.269 42.8335 246.349 42.8829 246.415 42.9473C246.481 43.0117 246.533 43.0895 246.566 43.1754C246.6 43.2614 246.615 43.3536 246.61 43.4458Z" fill="white"/>
<path d="M246.61 78.4186C246.603 78.5427 246.561 78.6623 246.488 78.7631C246.416 78.8638 246.315 78.9415 246.2 78.9868C246.084 79.0321 245.957 79.0431 245.836 79.0185C245.714 78.9939 245.602 78.9348 245.512 78.8481C245.423 78.7615 245.361 78.651 245.333 78.53C245.305 78.4089 245.312 78.2823 245.355 78.1653C245.397 78.0484 245.471 77.946 245.57 77.8704C245.669 77.7948 245.787 77.7492 245.911 77.7391C246.003 77.7316 246.096 77.7439 246.182 77.7751C246.269 77.8063 246.349 77.8557 246.415 77.9201C246.481 77.9845 246.533 78.0623 246.566 78.1483C246.6 78.2342 246.615 78.3264 246.61 78.4186Z" fill="white"/>
<path d="M255.703 43.4458C255.703 43.5802 255.664 43.7116 255.589 43.8234C255.514 43.9351 255.408 44.0222 255.284 44.0736C255.16 44.1251 255.023 44.1385 254.891 44.1123C254.759 44.0861 254.638 44.0214 254.543 43.9263C254.448 43.8313 254.384 43.7102 254.357 43.5784C254.331 43.4466 254.345 43.31 254.396 43.1858C254.447 43.0616 254.535 42.9555 254.646 42.8808C254.758 42.8062 254.889 42.7663 255.024 42.7663C255.114 42.7617 255.205 42.7761 255.289 42.8086C255.374 42.8411 255.451 42.891 255.515 42.955C255.579 43.0191 255.629 43.0958 255.661 43.1804C255.694 43.2649 255.708 43.3554 255.703 43.4458V43.4458Z" fill="white"/>
<path d="M255.703 78.4187C255.703 78.5531 255.664 78.6844 255.589 78.7962C255.514 78.9079 255.408 78.995 255.284 79.0465C255.16 79.0979 255.023 79.1113 254.891 79.0851C254.759 79.0589 254.638 78.9942 254.543 78.8992C254.448 78.8041 254.384 78.6831 254.357 78.5512C254.331 78.4194 254.345 78.2828 254.396 78.1586C254.447 78.0345 254.535 77.9283 254.646 77.8537C254.758 77.779 254.889 77.7392 255.024 77.7392C255.114 77.7345 255.205 77.7489 255.289 77.7814C255.374 77.8139 255.451 77.8638 255.515 77.9279C255.579 77.9919 255.629 78.0687 255.661 78.1532C255.694 78.2378 255.708 78.3282 255.703 78.4187V78.4187Z" fill="white"/>
<path d="M264.797 43.4458C264.797 43.5802 264.757 43.7116 264.682 43.8234C264.607 43.9351 264.501 44.0222 264.377 44.0736C264.253 44.1251 264.116 44.1385 263.984 44.1123C263.853 44.0861 263.732 44.0214 263.637 43.9263C263.542 43.8313 263.477 43.7102 263.451 43.5784C263.424 43.4466 263.438 43.31 263.489 43.1858C263.541 43.0616 263.628 42.9555 263.74 42.8808C263.851 42.8062 263.983 42.7663 264.117 42.7663C264.208 42.7617 264.298 42.7761 264.383 42.8086C264.467 42.8411 264.544 42.891 264.608 42.955C264.672 43.0191 264.722 43.0958 264.754 43.1804C264.787 43.2649 264.801 43.3554 264.797 43.4458Z" fill="white"/>
<path d="M264.797 78.4187C264.797 78.5531 264.757 78.6844 264.682 78.7962C264.607 78.9079 264.501 78.995 264.377 79.0465C264.253 79.0979 264.116 79.1113 263.984 79.0851C263.853 79.0589 263.732 78.9942 263.637 78.8992C263.542 78.8041 263.477 78.6831 263.451 78.5512C263.424 78.4194 263.438 78.2828 263.489 78.1586C263.541 78.0345 263.628 77.9283 263.74 77.8537C263.851 77.779 263.983 77.7392 264.117 77.7392C264.208 77.7345 264.298 77.7489 264.383 77.7814C264.467 77.8139 264.544 77.8638 264.608 77.9279C264.672 77.9919 264.722 78.0687 264.754 78.1532C264.787 78.2378 264.801 78.3282 264.797 78.4187Z" fill="white"/>
<path d="M273.883 43.4458C273.877 43.5723 273.834 43.6941 273.759 43.7961C273.684 43.8982 273.581 43.9761 273.462 44.0202C273.344 44.0642 273.215 44.0725 273.091 44.044C272.968 44.0155 272.856 43.9515 272.768 43.8598C272.681 43.7681 272.623 43.6529 272.6 43.5283C272.578 43.4037 272.592 43.2753 272.642 43.1589C272.692 43.0425 272.775 42.9433 272.88 42.8735C272.986 42.8038 273.11 42.7665 273.236 42.7663C273.324 42.7662 273.411 42.784 273.492 42.8185C273.572 42.853 273.645 42.9036 273.706 42.9672C273.766 43.0307 273.813 43.1059 273.844 43.1882C273.874 43.2705 273.888 43.3582 273.883 43.4458Z" fill="white"/>
<path d="M273.883 78.4187C273.877 78.5451 273.834 78.6669 273.759 78.769C273.684 78.8711 273.581 78.9489 273.462 78.993C273.344 79.0371 273.215 79.0454 273.091 79.0169C272.968 78.9883 272.856 78.9243 272.768 78.8326C272.681 78.741 272.623 78.6257 272.6 78.5011C272.578 78.3766 272.592 78.2481 272.642 78.1318C272.692 78.0154 272.775 77.9162 272.88 77.8464C272.986 77.7766 273.11 77.7393 273.236 77.7392C273.324 77.7391 273.411 77.7568 273.492 77.7913C273.572 77.8259 273.645 77.8764 273.706 77.94C273.766 78.0036 273.813 78.0788 273.844 78.1611C273.874 78.2434 273.888 78.331 273.883 78.4187Z" fill="white"/>
<path style="mix-blend-mode:multiply" d="M262.24 48.636H236.164V49.8397H262.24V48.636Z" fill="url(#paint0_linear_225_413)"/>
<path style="mix-blend-mode:multiply" d="M262.24 83.6088H236.164V84.8125H262.24V83.6088Z" fill="url(#paint1_linear_225_413)"/>
<path style="mix-blend-mode:multiply" d="M274.466 52.2406H236.164V53.4443H274.466V52.2406Z" fill="url(#paint2_linear_225_413)"/>
<path style="mix-blend-mode:multiply" d="M274.466 87.2134H236.164V88.4172H274.466V87.2134Z" fill="url(#paint3_linear_225_413)"/>
<path d="M99.1889 25.1087C89.6795 32.9168 76.5053 39.0517 62.0184 42.3951L61.8755 70.999C61.81 84.0868 67.6204 95.9276 79.1452 106.192C86.7178 112.937 94.6797 117.121 98.7194 119C98.8933 118.923 99.0841 118.831 99.2717 118.745V25.1745C99.2442 25.1544 99.2154 25.1316 99.1889 25.1087Z" fill="#FB940D"/>
<path d="M99.2715 25.1745V118.745C103.473 116.789 111.108 112.748 118.421 106.35C130.047 96.1765 135.976 84.3843 136.041 71.2965L136.184 42.6926C121.772 39.2433 108.696 33.0255 99.2715 25.1745Z" fill="#FFB452"/>
<path d="M100.975 78.172V84.4528C100.975 85.288 100.214 85.983 99.2794 85.983C98.3292 85.983 97.5685 85.288 97.5685 84.4528V78.1577C96.1268 77.5743 95.113 76.2701 95.113 74.7685C95.113 72.7121 96.9821 71.0532 99.2794 71.0532C101.576 71.0532 103.43 72.7121 103.43 74.7685C103.43 76.2844 102.432 77.5886 100.975 78.172ZM82.439 66.4027V88.5628C82.439 91.031 116.104 91.031 116.104 88.5628V66.4027H82.439Z" fill="white"/>
<path d="M113.157 64.824H109.75V63.331C109.75 58.1628 105.049 53.9556 99.2731 53.9556C93.4956 53.9556 88.7956 58.1628 88.7956 63.331V64.824H85.3877V63.331C85.3877 56.4811 91.6164 50.9068 99.2731 50.9068C106.928 50.9068 113.157 56.4811 113.157 63.331V64.824Z" fill="white"/>
<defs>
<linearGradient id="paint0_linear_225_413" x1="6519" y1="276.747" x2="7569.62" y2="276.747" gradientUnits="userSpaceOnUse">
<stop stop-color="#D9E0E0"/>
<stop offset="0.26" stop-color="#009286"/>
<stop offset="1" stop-color="#01A79E"/>
</linearGradient>
<linearGradient id="paint1_linear_225_413" x1="6519" y1="311.72" x2="7569.62" y2="311.72" gradientUnits="userSpaceOnUse">
<stop stop-color="#D9E0E0"/>
<stop offset="0.26" stop-color="#009286"/>
<stop offset="1" stop-color="#01A79E"/>
</linearGradient>
<linearGradient id="paint2_linear_225_413" x1="9464.71" y1="287.049" x2="11731.1" y2="287.049" gradientUnits="userSpaceOnUse">
<stop stop-color="#C4C4C4"/>
<stop offset="0.26" stop-color="#D2D8D7"/>
<stop offset="1" stop-color="#EDF9F8"/>
</linearGradient>
<linearGradient id="paint3_linear_225_413" x1="9464.71" y1="322.021" x2="11731.1" y2="322.021" gradientUnits="userSpaceOnUse">
<stop stop-color="#C4C4C4"/>
<stop offset="0.26" stop-color="#D2D8D7"/>
<stop offset="1" stop-color="#EDF9F8"/>
</linearGradient>
</defs>
</svg>
